<?xml version="1.0" encoding="utf-8"?>
<!-- Generator: Adobe Illustrator 19.2.0, SVG Export Plug-In . SVG Version: 6.00 Build 0)  -->
<svg version="1.0" id="Layer_1" xmlns="http://www.w3.org/2000/svg" xmlns:xlink="http://www.w3.org/1999/xlink" x="0px" y="0px"
	 viewBox="0 0 600 600" enable-background="new 0 0 600 600" xml:space="preserve">
<g>
	<path d="M444,232c-61,34-137,39-201,7c-19-10-37-21-56-30c-48-21-105-9-145,23c-1-35,3-69,0-104c41-21,85-33,132-27c13,2,26,4,39,8
		c9,3,17,6,26,10c1,1,3,2,4,3c21,10,40,22,61,31c47,18,101,6,140-25c-1,26,1,52-1,78C442,215,445,223,444,232L444,232z"/>
	<path fill="none" stroke="#000000" stroke-miterlimit="10" d="M444,232c-61,34-137,39-201,7c-19-10-37-21-56-30
		c-48-21-105-9-145,23c-1-35,3-69,0-104c41-21,85-33,132-27c13,2,26,4,39,8c9,3,17,6,26,10c1,1,3,2,4,3c21,10,40,22,61,31
		c47,18,101,6,140-25c-1,26,1,52-1,78C442,215,445,223,444,232L444,232z"/>
</g>
<path d="M421,341.3c-5.2,1.1-11.3,1.9-19.6,1.9c-33.1,0-33.1-12-66.1-12c-33.1,0-33.1,12-66.1,12c-33.1,0-33.1-12-66.1-12
	c-33.1,0-33.1,12-66.1,12c-18.8,0-27.7-6.5-37.8-10.6v129c10.1,2.8,17.8,4.1,37.8,4.1c33.1,0,33.1-12,66.1-12
	c33.1,0,33.1,12,66.1,12c33.1,0,33.1-12,66.1-12c33.1,0,33.1,12,66.1,12c8.2,0,14.4-0.7,19.6-1.9V341.3z"/>
</svg>
